<svg width="154" height="37" viewBox="0 0 154 37" fill="none" xmlns="http://www.w3.org/2000/svg">
<path fill-rule="evenodd" clip-rule="evenodd" d="M141.407 6.63504V1.7936L147.721 0V6.63504H153.998V12.4925H147.724V23.5917C147.724 24.5763 147.921 25.0506 148.09 25.252C148.299 25.4361 148.689 25.6116 149.424 25.6383C150.341 25.6378 151.481 25.6077 152.845 25.5493L154 25.4998V31.0065L153.039 31.1265C149.388 31.5826 146.433 31.3562 144.429 30.1709L144.423 30.167L144.416 30.1631C142.3 28.8723 141.409 26.5442 141.409 23.5917V12.4925H136.736V6.63504H141.407ZM73.4787 37V35.9541C73.4787 32.9929 73.4799 30.0312 73.4811 27.0698V27.0381V26.9843V26.9829V26.9815V26.9801C73.4824 23.9925 73.4836 21.0055 73.4836 18.0195C73.4836 10.8099 79.6679 4.96833 87.293 4.96833C94.9176 4.96833 101.102 10.8099 101.102 18.0195C101.102 25.2292 94.9176 31.0708 87.293 31.0708C84.5344 31.0708 81.9639 30.3057 79.8073 28.9885V37H73.4787ZM87.293 10.9451C83.1551 10.9451 79.8043 14.1141 79.8043 18.0195C79.8043 21.925 83.1551 25.094 87.293 25.094C91.4303 25.094 94.7812 21.925 94.7812 18.0195C94.7812 14.1141 91.4303 10.9451 87.293 10.9451ZM67.5385 14.7712C67.5031 12.2202 66.4142 9.7751 64.4962 7.96749C62.5483 6.12962 59.909 5.09875 57.1584 5.09875C54.4626 5.09875 51.8736 6.08893 49.9379 7.85855C48.0022 6.08893 45.4132 5.09875 42.7174 5.09875C39.966 5.09875 37.3259 6.13016 35.3781 7.9689C33.4666 9.77332 32.3548 12.213 32.3189 14.7712V14.7782V30.9855H38.6639V14.7983C38.6918 13.8207 39.113 12.8893 39.8474 12.1961C40.6086 11.4775 41.6409 11.0739 42.7174 11.0739C43.7935 11.0739 44.8272 11.4785 45.5887 12.1973C46.3589 12.9229 46.8057 13.9018 46.8057 14.9011V30.9855H53.1508V14.7982C53.1789 13.7958 53.5718 12.8725 54.2885 12.1961C55.0497 11.4775 56.0819 11.0739 57.1584 11.0739C58.2345 11.0739 59.2682 11.4785 60.0297 12.1973C60.7877 12.9115 61.2159 13.886 61.2159 14.9011V30.9855H67.5385V14.7782V14.7712ZM13.4978 5.88361C9.57966 5.88361 6.3006 7.09099 3.76755 9.55476C1.24549 12.003 0 15.0884 0 18.6962C0 22.3462 1.26203 25.4387 3.8179 27.8877L3.82306 27.8927L3.82831 27.8976C6.4243 30.3197 9.72871 31.526 13.7832 31.5089C18.7449 31.5081 22.5661 29.7233 25.1143 25.9722L25.7461 25.0422L20.3046 22.1205L19.7454 22.9787C18.563 24.7939 16.6839 25.7471 13.8755 25.7471C11.8414 25.7471 10.1952 25.2484 8.87015 24.3048C7.91589 23.6078 7.20877 22.6964 6.76065 21.5332H26.0841L26.2255 20.6427C26.3282 19.9964 26.3804 19.3646 26.3804 18.7412C26.3804 15.2432 25.1842 12.2154 22.7812 9.7156L22.7799 9.71431L22.7787 9.71296C20.3433 7.1968 17.2766 5.88361 13.4978 5.88361ZM8.72491 13.1813L8.72998 13.1772L8.73495 13.1731C9.9549 12.1702 11.5135 11.6405 13.4978 11.6405C15.1404 11.6405 16.5465 12.1147 17.7611 13.0591C18.6637 13.7608 19.3356 14.7345 19.7388 16.0366H6.7178C7.12539 14.8665 7.79811 13.925 8.72491 13.1813ZM119.676 30.9859C122.413 30.9859 124.964 30.2275 127.107 28.9215V30.8723H133.422L133.415 17.8017V17.7948C133.312 10.6943 127.2 4.96833 119.676 4.96833C112.088 4.96833 105.936 10.7927 105.936 17.9771C105.936 25.1614 112.088 30.9859 119.676 30.9859ZM112.243 17.9771C112.243 14.0903 115.571 10.9398 119.676 10.9398C123.725 10.9398 127.018 14.006 127.107 17.8202V18.1616C127.003 21.9628 123.716 25.0145 119.676 25.0145C115.571 25.0145 112.243 21.8639 112.243 17.9771Z" fill="white"/>
</svg>
